HIERARCHY
ROOT hips
{
  OFFSET 0 10.6860622 2.3727825e-15
  CHANNELS 6 Xposition Yposition Zposition Yrotation Xrotation Zrotation
  JOINT leftUpperLeg
  {
    OFFSET 0.6642549969 -0.9402397400000004 0
    CHANNELS 3 Yrotation Xrotation Zrotation
    JOINT leftLowerLeg
    {
      OFFSET 0 -3.997221335632195 0
      CHANNELS 3 Yrotation Xrotation Zrotation
      JOINT leftFoot
      {
        OFFSET -0.13777839790000004 -4.6145792000000005 -0.22186036399999998
        CHANNELS 3 Yrotation Xrotation Zrotation
        JOINT leftToes
        {
          OFFSET -0.03777410834999995 -0.9130806927000008 0.85230013
          CHANNELS 3 Yrotation Xrotation Zrotation
          End Site
          {
            OFFSET -0.03777410834999995 -0.9130806927000008 0.85230013
          }
        }
      }
    }
  }
  JOINT rightUpperLeg
  {
    OFFSET -0.6642778626 -0.9402397400000004 0
    CHANNELS 3 Yrotation Xrotation Zrotation
    JOINT rightLowerLeg
    {
      OFFSET 0 -3.997221452859387 0
      CHANNELS 3 Yrotation Xrotation Zrotation
      JOINT rightFoot
      {
        OFFSET 0.1377926176 -4.6145792000000005 -0.22185782299999995
        CHANNELS 3 Yrotation Xrotation Zrotation
        JOINT rightToes
        {
          OFFSET 0.037780746850000047 -0.9130806927000008 0.85230167
          CHANNELS 3 Yrotation Xrotation Zrotation
          End Site
          {
            OFFSET 0.037780746850000047 -0.9130806927000008 0.85230167
          }
        }
      }
    }
  }
  JOINT spine
  {
    OFFSET 0 0.13988381660000015 0
    CHANNELS 3 Yrotation Xrotation Zrotation
    JOINT chest
    {
      OFFSET 0 0.6191039003973773 0
      CHANNELS 3 Yrotation Xrotation Zrotation
      JOINT upperChest
      {
        OFFSET 0 0.9855186130586943 0
        CHANNELS 3 Yrotation Xrotation Zrotation
        JOINT leftShoulder
        {
          OFFSET 0.1807663869 1.5087829790000005 0
          CHANNELS 3 Yrotation Xrotation Zrotation
          JOINT leftUpperArm
          {
            OFFSET 0.5985063006419806 0 0
            CHANNELS 3 Yrotation Xrotation Zrotation
            JOINT leftLowerArm
            {
              OFFSET 2.2993332369501065 0 0
              CHANNELS 3 Yrotation Xrotation Zrotation
              JOINT leftHand
              {
                OFFSET 2.395047042602395 0 0
                CHANNELS 3 Yrotation Xrotation Zrotation
                JOINT leftIndexProximal
                {
                  OFFSET 0.5766295810000004 0.04556643899499946 0.17265095988184
                  CHANNELS 3 Yrotation Xrotation Zrotation
                  JOINT leftIndexIntermediate
                  {
                    OFFSET 0.2957229000000008 -0.019352197700001517 -0.007932640616999987
                    CHANNELS 3 Yrotation Xrotation Zrotation
                    JOINT leftIndexDistal
                    {
                      OFFSET 0.19008243099999922 -0.012484908149998475 -0.002786250786000012
                      CHANNELS 3 Yrotation Xrotation Zrotation
                      End Site
                      {
                        OFFSET 0.19008243099999922 -0.012484908149998475 -0.002786250786000012
                      }
                    }
                  }
                }
                JOINT leftMiddleProximal
                {
                  OFFSET 0.5834975091000001 0.0524350405149987 0.02204081888183999
                  CHANNELS 3 Yrotation Xrotation Zrotation
                  JOINT leftMiddleIntermediate
                  {
                    OFFSET 0.33880573540000003 -0.019871473270000717 -0.00000971183179999946
                    CHANNELS 3 Yrotation Xrotation Zrotation
                    JOINT leftMiddleDistal
                    {
                      OFFSET 0.20676022730000088 -0.012221336379999448 0.0001471936708000235
                      CHANNELS 3 Yrotation Xrotation Zrotation
                      End Site
                      {
                        OFFSET 0.20676022730000088 -0.012221336379999448 0.0001471936708000235
                      }
                    }
                  }
                }
                JOINT leftLittleProximal
                {
                  OFFSET 0.5344154683999995 -0.012880921405001189 -0.24414037221816004
                  CHANNELS 3 Yrotation Xrotation Zrotation
                  JOINT leftLittleIntermediate
                  {
                    OFFSET 0.21758961730000093 -0.011650919939999227 0.011893592810000034
                    CHANNELS 3 Yrotation Xrotation Zrotation
                    JOINT leftLittleDistal
                    {
                      OFFSET 0.1475273964999999 -0.008152365682999818 0.006001092492999946
                      CHANNELS 3 Yrotation Xrotation Zrotation
                      End Site
                      {
                        OFFSET 0.1475273964999999 -0.008152365682999818 0.006001092492999946
                      }
                    }
                  }
                }
                JOINT leftRingProximal
                {
                  OFFSET 0.5799399463000003 0.026911854694997794 -0.12150566991816003
                  CHANNELS 3 Yrotation Xrotation Zrotation
                  JOINT leftRingIntermediate
                  {
                    OFFSET 0.26167887460000006 -0.013480186499999602 0.010996293000000053
                    CHANNELS 3 Yrotation Xrotation Zrotation
                    JOINT leftRingDistal
                    {
                      OFFSET 0.17667108799999987 -0.008990287899999228 0.0055541023999999065
                      CHANNELS 3 Yrotation Xrotation Zrotation
                      End Site
                      {
                        OFFSET 0.17667108799999987 -0.008990287899999228 0.0055541023999999065
                      }
                    }
                  }
                }
                JOINT leftThumbProximal
                {
                  OFFSET 0.11018806699999972 -0.09448718900500053 0.17047963138184
                  CHANNELS 3 Yrotation Xrotation Zrotation
                  JOINT leftThumbIntermediate
                  {
                    OFFSET 0.31062601459999983 -0.08126270900000132 0.15443142000000007
                    CHANNELS 3 Yrotation Xrotation Zrotation
                    JOINT leftThumbDistal
                    {
                      OFFSET 0.21627175790000086 -0.08833193599999878 0.018771167799999988
                      CHANNELS 3 Yrotation Xrotation Zrotation
                      End Site
                      {
                        OFFSET 0.21627175790000086 -0.08833193599999878 0.018771167799999988
                      }
                    }
                  }
                }
              }
            }
          }
        }
        JOINT neck
        {
          OFFSET 0 1.5463305265074576 0
          CHANNELS 3 Yrotation Xrotation Zrotation
          JOINT head
          {
            OFFSET 0 0.8456443600000344 0
            CHANNELS 3 Yrotation Xrotation Zrotation
            JOINT leftEye
            {
              OFFSET 0.30408573140000006 0.5104519199999995 0.1276382305
              CHANNELS 3 Yrotation Xrotation Zrotation
              End Site
              {
                OFFSET 0.30408573140000006 0.5104519199999995 0.1276382305
              }
            }
            JOINT rightEye
            {
              OFFSET -0.30409491089999996 0.5104519199999995 0.1276379445
              CHANNELS 3 Yrotation Xrotation Zrotation
              End Site
              {
                OFFSET -0.30409491089999996 0.5104519199999995 0.1276379445
              }
            }
            JOINT jaw
            {
              OFFSET -3.155239131000001e-7 -0.11984121820000082 0.60178107
              CHANNELS 3 Yrotation Xrotation Zrotation
              End Site
              {
                OFFSET -3.155239131000001e-7 -0.11984121820000082 0.60178107
              }
            }
          }
        }
        JOINT rightShoulder
        {
          OFFSET -0.1807303465 1.5087829790000005 0
          CHANNELS 3 Yrotation Xrotation Zrotation
          JOINT rightUpperArm
          {
            OFFSET -0.5985063796536958 0 0
            CHANNELS 3 Yrotation Xrotation Zrotation
            JOINT rightLowerArm
            {
              OFFSET -2.2993322059002854 0 0
              CHANNELS 3 Yrotation Xrotation Zrotation
              JOINT rightHand
              {
                OFFSET -2.395045314457259 0 0
                CHANNELS 3 Yrotation Xrotation Zrotation
                JOINT rightIndexProximal
                {
                  OFFSET -0.5764487688300002 0.0441371204405987 0.17361932004999997
                  CHANNELS 3 Yrotation Xrotation Zrotation
                  JOINT rightIndexIntermediate
                  {
                    OFFSET -0.29573011380000047 -0.01934826376999843 -0.007698921482999974
                    CHANNELS 3 Yrotation Xrotation Zrotation
                    JOINT rightIndexDistal
                    {
                      OFFSET -0.19008373999999884 -0.012503266380000655 -0.0026365778999999897
                      CHANNELS 3 Yrotation Xrotation Zrotation
                      End Site
                      {
                        OFFSET -0.19008373999999884 -0.012503266380000655 -0.0026365778999999897
                      }
                    }
                  }
                }
                JOINT rightMiddleProximal
                {
                  OFFSET -0.5834852037300005 0.05211639405060153 0.02307162440000001
                  CHANNELS 3 Yrotation Xrotation Zrotation
                  JOINT rightMiddleIntermediate
                  {
                    OFFSET -0.33880114510000003 -0.019952774050000954 0.0002455003561999819
                    CHANNELS 3 Yrotation Xrotation Zrotation
                    JOINT rightMiddleDistal
                    {
                      OFFSET -0.20675694929999955 -0.012273788999999091 0.00030209124000002766
                      CHANNELS 3 Yrotation Xrotation Zrotation
                      End Site
                      {
                        OFFSET -0.20675694929999955 -0.012273788999999091 0.00030209124000002766
                      }
                    }
                  }
                }
                JOINT rightLittleProximal
                {
                  OFFSET -0.5346811737299992 -0.011214256288399227 -0.24363941305000003
                  CHANNELS 3 Yrotation Xrotation Zrotation
                  JOINT rightLittleIntermediate
                  {
                    OFFSET -0.21757715980000092 -0.011771559690000988 0.01201554387
                    CHANNELS 3 Yrotation Xrotation Zrotation
                    JOINT rightLittleDistal
                    {
                      OFFSET -0.1475201849000004 -0.00822055339600003 0.006082065407000015
                      CHANNELS 3 Yrotation Xrotation Zrotation
                      End Site
                      {
                        OFFSET -0.1475201849000004 -0.00822055339600003 0.006082065407000015
                      }
                    }
                  }
                }
                JOINT rightRingProximal
                {
                  OFFSET -0.5800810755299999 0.027657985680600072 -0.12066365025000003
                  CHANNELS 3 Yrotation Xrotation Zrotation
                  JOINT rightRingIntermediate
                  {
                    OFFSET -0.26166445029999974 -0.013623118409999302 0.011164098990000045
                    CHANNELS 3 Yrotation Xrotation Zrotation
                    JOINT rightRingDistal
                    {
                      OFFSET -0.17666387530000027 -0.009072900100000503 0.005668185599999959
                      CHANNELS 3 Yrotation Xrotation Zrotation
                      End Site
                      {
                        OFFSET -0.17666387530000027 -0.009072900100000503 0.005668185599999959
                      }
                    }
                  }
                }
                JOINT rightThumbProximal
                {
                  OFFSET -0.10997596379000074 -0.09577489355940072 0.16989765924999997
                  CHANNELS 3 Yrotation Xrotation Zrotation
                  JOINT rightThumbIntermediate
                  {
                    OFFSET -0.31036620999999986 -0.08229339117999834 0.15440884469999996
                    CHANNELS 3 Yrotation Xrotation Zrotation
                    JOINT rightThumbDistal
                    {
                      OFFSET -0.21631306399999906 -0.08825326400000111 0.018656797720000014
                      CHANNELS 3 Yrotation Xrotation Zrotation
                      End Site
                      {
                        OFFSET -0.21631306399999906 -0.08825326400000111 0.018656797720000014
                      }
                    }
                  }
                }
              }
            }
          }
        }
      }
    }
  }
}
MOTION
Frames: 7
Frame Time: 0.03333333333333333
0 11.682712981546562 0 0 0 0 0 0 -5.826343164929014 -0.3712483961610101 -3.6333298826370974 5.838118207697276 0 0 0 0 0 0 0 0 5.826343164929014 0.3712483961610101 -3.6333298826370974 -5.838118207697276 0 0 0 0 0 0 0 -4.610651315171937 0 0 3.0831277533083026 0 0 0 0 0 1.5275236235667615 0 0 0 0 0 0 0 0 0 0 0 0 0 0 0 0 0 0 0 0 0 0 0 0 0 0 0 0 0 0 0 0 0 0 0 0 0 0 0 0 0 0 0 0 0 0 0 0 0 0 0 0 0 0 0 0 1.5275236235667615 0 0 0 0 0 0 0 0 0 0 0 0 0 0 1.5275236235667615 0 0 0 0 0 0 0 0 0 0 0 0 0 0 0 0 0 0 0 0 0 0 0 0 0 0 0 0 0 0 0 0 0 0 0 0 0 0 0 0 0 0 0 0 0 0 0 0 0 0 0 0 0 0 0
0.3523008206535807 -6.097143987449738 4.568624236703586 -180 -12.002545773668578 -1.4917734876406631e-15 11.061674462162802 -7.556080697612866 4.4735674901049185 168.0902902835902 71.71063664580186 176.65063295374506 4.548444844854497 46.021614912292414 -12.36729410220075 0 0 0 -11.073334795548178 -6.632126209943102 -5.685766912739157 -168.28910915496982 70.61213298628532 -176.99040869112721 -3.5743928507836435 43.809868460526225 12.30769727033458 0 0 0 -0.20598078242043955 14.031704853753443 -0.49490267268368826 -0.7389715576257344 29.886451256120633 -0.5855117248255722 0 0 0 48.735019102276055 4.085294867907035 -22.57309170137481 -109.32159302144504 -52.22940006190291 17.36649339022084 -89.673445136516 -10.266812156706468 -19.025211403659828 35.028997509933006 -69.97072363348853 -7.261614703102048 0 0 0 0 0 0 0 0 0 0 0 0 0 0 0 0 0 0 0 0 0 0 0 0 0 0 0 0 0 0 0 0 0 0 0 0 0 0 0 0 0 0 0 0 0 0 -13.47417300149565 0 0 -2.428922028821258 0 0 0 0 0 0 0 0 0 0 -61.51215253322198 11.88248057957239 24.811216436537766 112.31039331143926 -49.30909495620599 -15.479622072575467 100.52392593072729 -13.592916584496052 21.299103935056554 -31.590823718546766 -76.08566202620904 1.8523330974686159 0 0 0 0 0 0 0 0 0 0 0 0 0 0 0 0 0 0 0 0 0 0 0 0 0 0 0 0 0 0 0 0 0 0 0 0 0 0 0 0 0 0 0 0 0
0.3523008206535807 -6.097143987449738 4.568624236703586 -180 -11.999988318596268 -1.4914461020790454e-15 11.061674462162802 -7.556080697612866 4.4735674901049185 168.0902902835902 71.71063664580186 176.65063295374506 4.548444844854497 46.021614912292414 -12.36729410220075 0 0 0 -11.073335639071129 -6.632126639705827 -5.685767768035902 -168.28911167334013 70.61213298628532 -176.990412543666 -3.5743928507836435 43.809868460526225 12.30769727033458 0 0 0 -0.20709871211047223 15.106523061043804 -0.499008612636989 -0.7234016985397714 27.674625200133203 -0.5535121497542079 0 0 0 48.66336910173481 5.069970897853076 -22.133658358197575 -109.32159302144504 -52.22940006190291 17.36649339022084 -89.673445136516 -10.266812156706468 -19.025211403659828 35.61961907319571 -69.59682205719938 -7.706189056383619 0 0 0 0 0 0 0 0 0 0 0 0 0 0 0 0 0 0 0 0 0 0 0 0 0 0 0 0 0 0 0 0 0 0 0 0 0 0 0 0 0 0 0 0 0 0 -12.39935935354419 0 0 -4.833538984919091 0 0 0 0 0 0 0 0 0 0 -61.686385323436035 12.719139251110317 24.136311039512645 112.31039331143926 -49.30909495620599 -15.479622072575467 100.52392506712579 -13.592918341249915 21.29910557181869 -32.54015280882054 -75.79004891053641 2.7553003279834645 0 0 0 0 0 0 0 0 0 0 0 0 0 0 0 0 0 0 0 0 0 0 0 0 0 0 0 0 0 0 0 0 0 0 0 0 0 0 0 0 0 0 0 0 0
0.3523008206535807 -6.097143987449738 4.568624236703586 -180 -11.999988318596268 -1.4914461020790454e-15 11.061674462162802 -7.556080697612866 4.4735674901049185 168.0902902835902 71.71063664580186 176.65063159576005 4.548444844854497 46.021614912292414 -12.367290646835524 0 0 0 -11.073334795548178 -6.632126209943102 -5.685766912739157 -168.2891037195536 70.61214327391392 -176.99040440041173 -3.574391374785219 43.809868460526225 12.307698426243487 0 0 0 -0.2083036639524088 16.18238091626797 -0.5031610769286653 -0.7094430231261678 25.45355989548321 -0.5226654160992696 0 0 0 48.59912677922932 6.056140027754542 -21.694296598408236 -109.32159302144504 -52.22940006190291 17.36649339022084 -89.67344583415009 -10.266812156706468 -19.02520976311931 36.19193316140007 -69.22129981441249 -8.132266884901153 0 0 0 0 0 0 0 0 0 0 0 0 0 0 0 0 0 0 0 0 0 0 0 0 0 0 0 0 0 0 0 0 0 0 0 0 0 0 0 0 0 0 0 0 0 0 -11.323502333906772 0 0 -7.250053828203658 0 0 0 0 0 0 0 0 0 0 -61.87155534115675 13.554529348935247 23.455856348723316 112.3104218606311 -49.30910543231002 -15.479651642840441 100.52393261766653 -13.592918341249915 21.299102298294386 -33.45181100819311 -75.4908494975267 3.620574263251469 0 0 0 0 0 0 0 0 0 0 0 0 0 0 0 0 0 0 0 0 0 0 0 0 0 0 0 0 0 0 0 0 0 0 0 0 0 0 0 0 0 0 0 0 0
0.3523008206535807 -6.097143987449738 4.568624236703586 -180 -11.999988318596268 -1.4914461020790454e-15 11.061674462162802 -7.556080697612866 4.4735674901049185 168.0902902835902 71.71063664580186 176.65063295374506 4.548444844854497 46.021614912292414 -12.36729410220075 0 0 0 -11.073334795548178 -6.632126209943102 -5.685766912739157 -168.28910915496982 70.61213298628532 -176.99040869112721 -3.5743928507836435 43.809868460526225 12.30769727033458 0 0 0 -0.2095988409274949 17.2590972156678 -0.5073653594824039 -0.6969884142285145 23.224881616262667 -0.49284342669751313 0 0 0 48.54234973174822 7.043566388980999 -21.25482652294308 -109.32159302144504 -52.22940006190291 17.36649339022084 -89.673445136516 -10.266812156706468 -19.025211403659828 36.74683159639833 -68.84427115115079 -8.540738693253465 0 0 0 0 0 0 0 0 0 0 0 0 0 0 0 0 0 0 0 0 0 0 0 0 0 0 0 0 0 0 0 0 0 0 0 0 0 0 0 0 0 0 0 0 0 0 -10.246788786339211 0 0 -9.676386923844516 0 0 0 0 0 0 0 0 0 0 -62.06775685869193 14.38835453013899 22.769595963015462 112.31039331143926 -49.30909495620599 -15.479622072575467 100.52392593072729 -13.592916584496052 21.299103935056554 -34.32766199844858 -75.18832220711374 4.449997216566037 0 0 0 0 0 0 0 0 0 0 0 0 0 0 0 0 0 0 0 0 0 0 0 0 0 0 0 0 0 0 0 0 0 0 0 0 0 0 0 0 0 0 0 0 0
0.3523008206535807 -6.097143987449738 4.568624236703586 -180 -11.999988318596268 -1.4914461020790454e-15 11.061674462162802 -7.556080697612866 4.4735674901049185 168.0902902835902 71.71063664580186 176.65063295374506 4.548443312774981 46.021614912292414 -12.367295303204926 0 0 0 -11.073334795548178 -6.632126209943102 -5.685766912739157 -168.28911981066238 70.61211241104388 -176.99041850574824 -3.5743928507836435 43.809868460526225 12.30769727033458 0 0 0 -0.21098572840520166 18.336485614595915 -0.5116235308778353 -0.6859429293571488 20.990246108727955 -0.4639309623785169 0 0 0 48.49304400783169 8.032015393192523 -20.81506031801404 -109.32159302144504 -52.22940006190291 17.36649339022084 -89.673445136516 -10.266812156706468 -19.025211403659828 37.2851915357141 -68.46583302036228 -8.932463796788214 0 0 0 0 0 0 0 0 0 0 0 0 0 0 0 0 0 0 0 0 0 0 0 0 0 0 0 0 0 0 0 0 0 0 0 0 0 0 0 0 0 0 0 0 0 0 -9.169411658998346 0 0 -12.110413984042317 0 0 0 0 0 0 0 0 0 0 -62.275172480401764 15.220337316751257 22.07731980569582 112.31036355077438 -49.30908448010418 -15.47959894837785 100.52392506712579 -13.592915706119124 21.29910557181869 -35.1694814956646 -74.88266749257724 5.245353970352647 0 0 0 0 0 0 0 0 0 0 0 0 0 0 0 0 0 0 0 0 0 0 0 0 0 0 0 0 0 0 0 0 0 0 0 0 0 0 0 0 0 0 0 0 0
0.3523008206535807 -6.097143987449738 4.568624236703586 -180 -11.999986572901433 -1.4914460051735134e-15 11.061673616911612 -7.556079836360647 4.4735674901049185 168.0902902835902 71.71063664580186 176.65063295374506 4.548444844854497 46.021614912292414 -12.367291847839624 0 0 0 -11.073334795548178 -6.632126209943102 -5.685766912739157 -168.28910915496982 70.61213298628532 -176.99040869112721 -3.5743925557446583 43.80986372812546 12.30769727033458 0 0 0 -0.2124670421453127 19.41434731908167 -0.5159378687230693 -0.6762254294985932 18.75132776965342 -0.435826877101364 0 0 0 48.451285257708356 9.021257273088583 -20.374821413688068 -109.32163829081509 -52.22941121320585 17.36653929566877 -89.67342948432864 -10.266811289040133 -19.025211403659828 37.80776422583098 -68.0860573198174 -9.308212359454952 0 0 0 0 0 0 0 0 0 0 0 0 0 0 0 0 0 0 0 0 0 0 0 0 0 0 0 0 0 0 0 0 0 0 0 0 0 0 0 0 0 0 0 0 0 0 -8.091551716009086 0 0 -14.549965264167838 0 0 0 0 0 0 0 0 0 0 -62.493982091842845 16.050186871994796 21.37879942363127 112.31040974579119 -49.30911067036288 -15.479635236696751 100.52391815831362 -13.592916584496052 21.299103935056554 -35.978950801611134 -74.5740586922832 6.008333573174272 0 0 0 0 0 0 0 0 0 0 0 0 0 0 0 0 0 0 0 0 0 0 0 0 0 0 0 0 0 0 0 0 0 0 0 0 0 0 0 0 0 0 0 0 0
